<?xml version="1.0" standalone="no"?>
<!DOCTYPE svg PUBLIC "-//W3C//DTD SVG 20010904//EN"
 "http://www.w3.org/TR/2001/REC-SVG-20010904/DTD/svg10.dtd">
<svg version="1.0" xmlns="http://www.w3.org/2000/svg"
 width="512.000000pt" height="512.000000pt" viewBox="0 0 512.000000 512.000000"
 preserveAspectRatio="xMidYMid meet">

<g transform="translate(0.000000,512.000000) scale(0.100000,-0.100000)"
fill="#000000" stroke="none">
<path d="M0 2560 l0 -2560 2180 0 2180 0 0 75 0 75 -2105 0 -2105 0 0 2410 0
2410 2410 0 2410 0 0 -2410 0 -2410 -230 0 -230 0 0 -75 0 -75 305 0 305 0 0
2560 0 2560 -2560 0 -2560 0 0 -2560z"/>
<path d="M310 4735 l0 -75 75 0 75 0 0 75 0 75 -75 0 -75 0 0 -75z"/>
<path d="M610 4735 l0 -75 75 0 75 0 0 75 0 75 -75 0 -75 0 0 -75z"/>
<path d="M1890 4114 c-385 -103 -614 -509 -490 -868 48 -140 92 -199 324 -433
l180 -183 28 27 29 27 61 -62 62 -61 -27 -29 -27 -28 265 -264 265 -265 486
485 c267 267 513 518 546 559 108 135 159 266 161 421 1 119 -13 180 -70 300
-39 81 -58 107 -137 185 -74 74 -107 99 -176 132 -47 23 -113 49 -146 57 -79
20 -232 20 -309 1 -90 -23 -212 -88 -289 -155 l-69 -59 -64 58 c-71 65 -195
133 -288 156 -75 19 -242 18 -315 -1z m285 -150 c95 -24 181 -79 287 -182 l98
-95 103 100 c111 106 186 152 282 178 197 51 415 -31 546 -205 70 -94 100
-175 107 -286 4 -75 1 -104 -16 -160 -41 -133 -67 -164 -506 -603 l-411 -411
-476 477 c-451 453 -477 482 -512 553 -76 160 -88 376 -24 462 28 38 130 115
183 139 109 49 233 61 339 33z"/>
<path d="M783 3838 c-6 -40 -9 -74 -8 -76 2 -2 411 -62 426 -62 5 0 29 141 25
147 -1 1 -85 13 -186 27 -102 14 -199 28 -216 31 l-31 5 -10 -72z"/>
<path d="M4097 3877 c-176 -26 -207 -33 -203 -46 3 -9 8 -42 12 -73 4 -37 11
-58 19 -58 13 0 334 45 391 55 l31 5 -11 72 c-6 39 -15 72 -21 73 -5 2 -103
-11 -218 -28z"/>
<path d="M770 3455 l0 -75 215 0 215 0 0 75 0 75 -215 0 -215 0 0 -75z"/>
<path d="M3920 3455 l0 -75 215 0 215 0 0 75 0 75 -215 0 -215 0 0 -75z"/>
<path d="M970 3190 c-102 -16 -185 -29 -186 -29 0 -1 4 -32 9 -71 9 -67 11
-70 37 -70 28 0 376 48 396 54 7 3 8 25 1 75 l-10 71 -31 -1 c-17 -1 -114 -14
-216 -29z"/>
<path d="M3892 3148 c-6 -40 -10 -73 -9 -74 1 -1 98 -15 216 -31 144 -20 214
-26 217 -19 2 6 5 40 7 76 l2 65 -190 27 c-104 14 -200 27 -211 27 -19 1 -23
-7 -32 -71z"/>
<path d="M460 1364 l0 -375 163 3 c151 3 166 5 219 30 79 37 142 98 181 177
29 60 32 74 32 161 0 82 -4 103 -27 152 -53 113 -158 195 -277 218 -29 5 -107
10 -172 10 l-119 0 0 -376z m328 197 c76 -39 122 -116 122 -207 0 -59 -45
-142 -98 -179 -38 -26 -54 -30 -123 -34 l-79 -3 0 227 0 228 69 -6 c39 -3 87
-15 109 -26z"/>
<path d="M1453 1730 c-90 -18 -173 -84 -215 -169 -32 -64 -39 -282 -13 -366
21 -65 78 -134 142 -172 61 -35 167 -43 244 -18 77 26 159 110 183 188 27 86
20 303 -12 368 -60 122 -201 194 -329 169z m136 -169 c57 -41 66 -64 69 -189
3 -134 -8 -170 -67 -209 -71 -48 -175 -20 -213 57 -23 44 -25 224 -4 273 37
86 143 120 215 68z"/>
<path d="M1960 1365 l0 -375 75 0 75 0 2 226 3 225 145 -225 145 -226 78 0 77
0 0 375 0 375 -75 0 -75 0 -2 -235 -3 -234 -151 232 -151 232 -71 3 -72 3 0
-376z"/>
<path d="M2953 1730 c-90 -18 -173 -83 -215 -169 -22 -44 -23 -59 -26 -308
l-3 -263 75 0 76 0 0 75 0 75 150 0 150 0 0 -75 0 -75 76 0 75 0 -3 263 c-3
249 -4 264 -26 308 -60 122 -201 194 -329 169z m136 -169 c55 -39 66 -66 69
-172 l4 -99 -151 0 -151 0 0 85 c0 94 13 137 52 173 48 44 127 50 177 13z"/>
<path d="M3460 1665 l0 -75 110 0 110 0 0 -300 0 -300 80 0 80 0 0 300 0 300
110 0 110 0 0 75 0 75 -300 0 -300 0 0 -75z"/>
<path d="M4210 1365 l0 -375 225 0 225 0 0 75 0 75 -150 0 -150 0 0 75 0 75
75 0 75 0 0 75 0 75 -75 0 -75 0 0 75 0 75 150 0 150 0 0 75 0 75 -225 0 -225
0 0 -375z"/>
</g>
</svg>
