<?xml version="1.0" standalone="no"?>
<!DOCTYPE svg PUBLIC "-//W3C//DTD SVG 20010904//EN"
 "http://www.w3.org/TR/2001/REC-SVG-20010904/DTD/svg10.dtd">
<svg version="1.0" xmlns="http://www.w3.org/2000/svg"
 width="512.000000pt" height="512.000000pt" viewBox="0 0 512.000000 512.000000"
 preserveAspectRatio="xMidYMid meet">

<g transform="translate(0.000000,512.000000) scale(0.100000,-0.100000)"
fill="#000000" stroke="none">
<path d="M2410 5114 c-19 -3 -83 -14 -142 -25 -483 -89 -908 -426 -1109 -878
-52 -116 -50 -158 8 -189 56 -30 97 0 138 101 16 37 30 67 32 67 3 0 36 -18
75 -41 52 -30 68 -45 64 -57 -2 -10 -21 -62 -40 -118 -20 -55 -43 -146 -53
-202 l-16 -102 -84 0 -83 0 0 56 c0 67 -10 87 -50 104 -65 27 -120 -28 -120
-120 l0 -40 -317 0 c-249 0 -332 -4 -382 -15 -168 -40 -291 -171 -323 -345
-20 -108 15 -240 90 -338 39 -51 129 -110 200 -132 63 -20 99 -20 2143 -20
l2079 0 0 -1228 0 -1228 -27 -53 c-27 -55 -84 -105 -146 -128 -24 -9 -469 -12
-1783 -12 -1924 -1 -1793 -5 -1874 59 -21 17 -50 54 -64 82 l-26 52 0 1103 c0
1174 1 1149 -45 1167 -39 15 -83 6 -104 -20 -21 -27 -21 -29 -21 -1139 0
-1090 0 -1114 20 -1179 32 -102 106 -191 202 -241 110 -58 10 -55 1905 -55
1252 0 1757 3 1795 11 151 32 273 142 319 288 18 61 19 102 19 1292 l0 1229
34 0 c91 0 240 76 298 152 76 99 110 230 90 340 -33 178 -168 315 -342 348
-29 5 -193 10 -365 10 l-313 0 -7 68 c-3 37 -18 119 -32 182 -130 594 -597
1049 -1203 1171 -93 19 -362 33 -440 23z m68 -260 l-3 -79 -80 -11 c-106 -16
-194 -39 -283 -76 -40 -17 -74 -29 -76 -27 -21 26 -76 135 -73 144 7 16 155
73 264 101 102 26 234 44 246 34 4 -4 7 -42 5 -86z m412 53 c112 -29 260 -86
267 -102 3 -9 -52 -118 -73 -144 -2 -2 -36 10 -76 27 -89 37 -177 60 -283 76
l-80 11 -3 84 -3 84 78 -6 c43 -3 121 -17 173 -30z m-1031 -278 l31 -55 -81
-64 c-73 -57 -176 -166 -216 -226 -8 -13 -19 -24 -25 -24 -17 0 -138 74 -138
85 0 7 35 54 78 106 76 91 144 156 246 233 55 42 48 46 105 -55z m1574 3 c92
-75 257 -260 257 -289 0 -9 -123 -83 -138 -83 -6 0 -17 11 -25 24 -40 60 -143
169 -216 226 l-81 63 37 66 c20 36 38 70 40 74 6 10 41 -12 126 -81z m-757
-32 c357 -45 658 -261 809 -582 38 -82 79 -216 89 -295 l7 -53 -466 0 -465 0
0 245 c0 135 2 245 5 245 18 0 66 -34 94 -65 38 -44 58 -91 67 -158 8 -61 39
-97 82 -97 38 0 79 33 87 69 9 40 -20 163 -51 221 -49 90 -159 175 -275 213
-9 3 -19 19 -22 36 -5 23 -16 36 -42 48 -33 16 -37 16 -70 0 -26 -12 -37 -25
-42 -48 -3 -17 -13 -33 -22 -36 -177 -58 -293 -187 -321 -354 -17 -98 8 -216
62 -291 l19 -28 -341 0 -341 0 7 53 c10 79 51 213 90 296 140 299 428 519 744
571 41 6 82 13 90 15 35 7 131 4 206 -5z m1133 -472 c42 -92 79 -217 96 -321
24 -147 29 -137 -68 -137 l-84 0 -16 102 c-10 56 -33 147 -53 202 -19 56 -38
108 -40 117 -4 13 12 28 63 58 37 22 69 40 71 41 2 0 16 -28 31 -62z m-1339
-203 c0 -137 -4 -235 -9 -235 -5 0 -29 15 -53 33 -117 89 -136 255 -41 367 26
31 79 70 96 70 4 0 7 -106 7 -235z m2335 -452 c115 -62 170 -192 131 -309 -22
-67 -65 -117 -128 -148 l-52 -26 -2196 0 -2196 0 -52 26 c-208 103 -177 406
48 475 14 4 1011 7 2215 6 l2190 -2 40 -22z"/>
<path d="M1930 2374 c-159 -34 -318 -149 -393 -284 -107 -195 -113 -402 -16
-600 41 -83 51 -94 467 -512 468 -470 460 -464 578 -462 105 1 122 15 571 468
437 440 461 470 506 611 17 54 21 94 21 180 0 97 -4 120 -30 195 -71 202 -219
339 -420 390 -209 54 -426 -1 -584 -147 l-69 -64 -82 71 c-168 145 -352 197
-549 154z"/>
</g>
</svg>
